<svg width="28" height="27" viewBox="0 0 28 27" fill="none" xmlns="http://www.w3.org/2000/svg">
<path d="M14.4204 0C18.0884 0 18.546 0.0134999 19.9851 0.0809999C21.4229 0.1485 22.4016 0.37395 23.2629 0.70875C24.1539 1.05165 24.9045 1.51605 25.6551 2.2653C26.3416 2.94016 26.8727 3.75649 27.2117 4.6575C27.5451 5.51745 27.7719 6.49755 27.8394 7.9353C27.9029 9.3744 27.9204 9.83205 27.9204 13.5C27.9204 17.1679 27.9069 17.6256 27.8394 19.0647C27.7719 20.5024 27.5451 21.4812 27.2117 22.3425C26.8737 23.244 26.3424 24.0605 25.6551 24.7347C24.9801 25.4209 24.1638 25.9521 23.2629 26.2913C22.403 26.6247 21.4229 26.8515 19.9851 26.919C18.546 26.9824 18.0884 27 14.4204 27C10.7525 27 10.2948 26.9865 8.85571 26.919C7.41796 26.8515 6.43921 26.6247 5.57791 26.2913C4.67655 25.953 3.86007 25.4218 3.18571 24.7347C2.49911 24.06 1.96792 23.2436 1.62916 22.3425C1.29436 21.4825 1.06891 20.5024 1.00141 19.0647C0.93796 17.6256 0.92041 17.1679 0.92041 13.5C0.92041 9.83205 0.93391 9.3744 1.00141 7.9353C1.06891 6.4962 1.29436 5.5188 1.62916 4.6575C1.96698 3.75594 2.49829 2.93938 3.18571 2.2653C3.86027 1.57846 4.67669 1.04723 5.57791 0.70875C6.43921 0.37395 7.41661 0.1485 8.85571 0.0809999C10.2948 0.0175499 10.7525 0 14.4204 0ZM14.4204 6.75C12.6302 6.75 10.9133 7.46116 9.64744 8.72703C8.38157 9.9929 7.67041 11.7098 7.67041 13.5C7.67041 15.2902 8.38157 17.0071 9.64744 18.273C10.9133 19.5388 12.6302 20.25 14.4204 20.25C16.2106 20.25 17.9275 19.5388 19.1934 18.273C20.4593 17.0071 21.1704 15.2902 21.1704 13.5C21.1704 11.7098 20.4593 9.9929 19.1934 8.72703C17.9275 7.46116 16.2106 6.75 14.4204 6.75ZM23.1954 6.4125C23.1954 5.96495 23.0176 5.53573 22.7012 5.21926C22.3847 4.90279 21.9555 4.725 21.5079 4.725C21.0604 4.725 20.6311 4.90279 20.3147 5.21926C19.9982 5.53573 19.8204 5.96495 19.8204 6.4125C19.8204 6.86005 19.9982 7.28927 20.3147 7.60574C20.6311 7.92221 21.0604 8.1 21.5079 8.1C21.9555 8.1 22.3847 7.92221 22.7012 7.60574C23.0176 7.28927 23.1954 6.86005 23.1954 6.4125ZM14.4204 9.45C15.4945 9.45 16.5247 9.87669 17.2842 10.6362C18.0437 11.3957 18.4704 12.4259 18.4704 13.5C18.4704 14.5741 18.0437 15.6043 17.2842 16.3638C16.5247 17.1233 15.4945 17.55 14.4204 17.55C13.3463 17.55 12.3161 17.1233 11.5566 16.3638C10.7971 15.6043 10.3704 14.5741 10.3704 13.5C10.3704 12.4259 10.7971 11.3957 11.5566 10.6362C12.3161 9.87669 13.3463 9.45 14.4204 9.45Z" fill="#2B2012"/>
</svg>
