<svg width="30" height="28" viewBox="0 0 30 28" fill="none" xmlns="http://www.w3.org/2000/svg">
<path d="M29.9204 13.7143C29.9204 17.3515 28.3905 20.8398 25.6673 23.4118C22.9441 25.9837 19.2506 27.4286 15.3994 27.4286C11.5482 27.4286 7.85474 25.9837 5.13152 23.4118C2.40831 20.8398 0.878418 17.3515 0.878418 13.7143C0.878418 10.077 2.40831 6.58875 5.13152 4.01682C7.85474 1.44489 11.5482 0 15.3994 0C19.2506 0 22.9441 1.44489 25.6673 4.01682C28.3905 6.58875 29.9204 10.077 29.9204 13.7143ZM15.9204 10.1246C14.507 10.68 11.6839 11.8286 7.45099 13.5703C6.76487 13.8274 6.40487 14.08 6.37099 14.328C6.31654 14.7446 6.87015 14.9091 7.62343 15.1337L7.94107 15.228C8.68165 15.456 9.67996 15.7217 10.1973 15.732C10.6692 15.7434 11.1944 15.5606 11.7728 15.1834C15.7286 12.6623 17.77 11.388 17.897 11.3606C17.9878 11.34 18.1149 11.316 18.1984 11.388C18.2818 11.46 18.2746 11.5937 18.2655 11.6297C18.2111 11.8509 16.0384 13.7571 14.9148 14.7446C14.5645 15.0531 14.3158 15.2709 14.265 15.3206C14.1531 15.4286 14.0393 15.5349 13.9237 15.6394C13.234 16.2669 12.7185 16.7366 13.951 17.5046C14.5445 17.8749 15.0201 18.1783 15.4938 18.4834C16.0093 18.816 16.5248 19.1469 17.1928 19.5617C17.3622 19.6669 17.5255 19.7737 17.6829 19.8823C18.2837 20.2869 18.8264 20.6503 19.4925 20.592C19.881 20.5577 20.2821 20.2149 20.4854 19.1863C20.9664 16.7571 21.9121 11.496 22.1299 9.32743C22.1436 9.14716 22.1357 8.96602 22.1063 8.78743C22.0887 8.64344 22.0149 8.51082 21.8994 8.41543C21.734 8.30818 21.5373 8.25243 21.3367 8.256C20.7922 8.26457 19.9518 8.54057 15.9204 10.1246Z" fill="#2B2012"/>
</svg>
