<svg width="27" height="28" viewBox="0 0 27 28" fill="none" xmlns="http://www.w3.org/2000/svg">
<path d="M22.9517 4.0706C21.7141 2.77471 20.24 1.74738 18.6155 1.04851C16.991 0.349645 15.2486 -0.00675644 13.4899 9.69938e-05C6.12056 9.69938e-05 0.11475 6.2266 0.108 13.8706C0.108 16.3188 0.725625 18.7006 1.89169 20.8093L0 28.0001L7.09425 26.0716C9.05595 27.1815 11.2552 27.7622 13.4899 27.7603H13.4966C20.8676 27.7603 26.8717 21.5338 26.8785 13.8828C26.88 12.0595 26.5337 10.2538 25.8594 8.56975C25.1852 6.88573 24.1981 5.35667 22.9517 4.0706ZM13.4899 25.4118C11.4972 25.4102 9.5415 24.8542 7.82662 23.8018L7.42162 23.5498L3.213 24.6943L4.33687 20.4366L4.07363 19.9973C2.95955 18.1604 2.37034 16.0336 2.37431 13.8636C2.37431 7.5181 7.36425 2.3416 13.4966 2.3416C14.9576 2.33888 16.4046 2.63608 17.7542 3.21606C19.1039 3.79604 20.3295 4.64733 21.3604 5.72085C22.3946 6.79036 23.2146 8.06155 23.773 9.46117C24.3314 10.8608 24.6172 12.3612 24.6139 13.8758C24.6071 20.2441 19.6172 25.4118 13.4899 25.4118ZM19.5902 16.7773C19.2577 16.6041 17.6158 15.7658 17.307 15.6468C16.9999 15.5331 16.7754 15.4736 16.5561 15.8201C16.3316 16.1648 15.6904 16.9506 15.498 17.1763C15.3056 17.4091 15.1065 17.4353 14.7724 17.2638C14.4399 17.0888 13.3616 16.7248 12.0859 15.5401C11.0903 14.6213 10.4237 13.4838 10.2246 13.1391C10.0322 12.7926 10.206 12.6071 10.3731 12.4338C10.5199 12.2798 10.7055 12.0278 10.8726 11.8283C11.0413 11.6288 11.097 11.4818 11.2067 11.2508C11.3164 11.0163 11.2641 10.8168 11.1814 10.6436C11.097 10.4703 10.4304 8.7606 10.1486 8.0711C9.87862 7.39035 9.60356 7.48485 9.39769 7.4761C9.20531 7.46385 8.98088 7.46385 8.75644 7.46385C8.58697 7.46832 8.42022 7.50902 8.26661 7.5834C8.11301 7.65777 7.97586 7.76423 7.86375 7.8961C7.55662 8.2426 6.69769 9.08085 6.69769 10.7906C6.69769 12.5003 7.89581 14.1436 8.06456 14.3763C8.22994 14.6091 10.4169 18.1073 13.7734 19.6123C14.5665 19.9711 15.1909 20.1828 15.6786 20.3438C16.4801 20.6098 17.2041 20.5696 17.7812 20.4838C18.4224 20.3823 19.7572 19.6438 20.0391 18.8336C20.3158 18.0216 20.3158 17.3286 20.2314 17.1833C20.1488 17.0363 19.9243 16.9506 19.5902 16.7773Z" fill="#2B2012"/>
</svg>
