<svg width="40" height="40" viewBox="0 0 40 40" fill="none" xmlns="http://www.w3.org/2000/svg">
<path d="M20 37.9163C18.8333 37.9163 17.65 37.4663 16.7667 36.5829L13.9167 33.7663C13.2167 33.0663 12.25 32.6829 11.2667 32.6829H10C6.55 32.6829 3.75 29.8996 3.75 26.483V8.29956C3.75 4.88289 6.55 2.09961 10 2.09961H30C33.45 2.09961 36.25 4.88289 36.25 8.29956V26.483C36.25 29.8996 33.45 32.6829 30 32.6829H28.7333C27.75 32.6829 26.7833 33.0829 26.0833 33.7663L23.2333 36.5829C22.35 37.4663 21.1667 37.9163 20 37.9163ZM10 4.58293C7.93333 4.58293 6.25 6.24954 6.25 8.28288V26.4663C6.25 28.5163 7.93333 30.1662 10 30.1662H11.2667C12.9167 30.1662 14.5167 30.8329 15.6833 31.9829L18.5333 34.7996C19.35 35.5996 20.6667 35.5996 21.4834 34.7996L24.3333 31.9829C25.5 30.8329 27.1 30.1662 28.75 30.1662H30C32.0667 30.1662 33.75 28.4996 33.75 26.4663V8.28288C33.75 6.23288 32.0667 4.58293 30 4.58293H10Z" fill="#6FB2CF"/>
<path d="M19.9994 26.2498C19.6994 26.2498 19.3994 26.1998 19.1328 26.1165C16.9328 25.3665 11.2661 22.0499 11.2661 15.8499C11.2661 12.8499 13.6994 10.4165 16.6828 10.4165C17.8994 10.4165 19.0661 10.8332 20.0161 11.5665C20.9661 10.8332 22.1328 10.4165 23.3494 10.4165C26.3328 10.4165 28.7661 12.8499 28.7661 15.8499C28.7661 22.0499 23.0828 25.3665 20.8994 26.1165C20.5994 26.1998 20.2994 26.2498 19.9994 26.2498ZM16.6661 12.9165C15.0661 12.9165 13.7494 14.2332 13.7494 15.8499C13.7494 20.5665 18.3327 23.1998 19.9327 23.7498C19.9494 23.7498 20.0161 23.7498 20.0661 23.7498C21.6828 23.1832 26.2327 20.5499 26.2327 15.8665C26.2327 14.2499 24.9327 12.9332 23.3161 12.9332C22.3994 12.9332 21.5494 13.3665 20.9828 14.0999C20.5161 14.7332 19.4495 14.7332 18.9828 14.0999C18.4495 13.3499 17.5994 12.9165 16.6661 12.9165Z" fill="#6FB2CF"/>
</svg>
