<svg width="24" height="24" viewBox="0 0 24 24" fill="none" xmlns="http://www.w3.org/2000/svg">
<path d="M14.75 11.7501H9.25C8.84 11.7501 8.5 11.4101 8.5 11.0001C8.5 10.5901 8.84 10.2501 9.25 10.2501H14.75C15.16 10.2501 15.5 10.5901 15.5 11.0001C15.5 11.4101 15.16 11.7501 14.75 11.7501Z" fill="#434343"/>
<path d="M11.9997 22.7601C10.5197 22.7601 9.02969 22.2001 7.86969 21.0901C4.91969 18.2501 1.65969 13.7201 2.88969 8.33012C3.99969 3.44012 8.26969 1.25012 11.9997 1.25012C11.9997 1.25012 11.9997 1.25012 12.0097 1.25012C15.7397 1.25012 20.0097 3.44012 21.1197 8.34012C22.3397 13.7301 19.0797 18.2501 16.1297 21.0901C14.9697 22.2001 13.4797 22.7601 11.9997 22.7601ZM11.9997 2.75012C9.08969 2.75012 5.34969 4.30012 4.35969 8.66012C3.27969 13.3701 6.23969 17.4301 8.91969 20.0001C10.6497 21.6701 13.3597 21.6701 15.0897 20.0001C17.7597 17.4301 20.7197 13.3701 19.6597 8.66012C18.6597 4.30012 14.9097 2.75012 11.9997 2.75012Z" fill="#434343"/>
</svg>
