<svg width="24" height="24" viewBox="0 0 24 24" fill="none" xmlns="http://www.w3.org/2000/svg">
<path d="M15 22.7501H9C3.57 22.7501 1.25 20.4301 1.25 15.0001V9.00006C1.25 3.57006 3.57 1.25006 9 1.25006H15C20.43 1.25006 22.75 3.57006 22.75 9.00006V15.0001C22.75 20.4301 20.43 22.7501 15 22.7501ZM9 2.75006C4.39 2.75006 2.75 4.39006 2.75 9.00006V15.0001C2.75 19.6101 4.39 21.2501 9 21.2501H15C19.61 21.2501 21.25 19.6101 21.25 15.0001V9.00006C21.25 4.39006 19.61 2.75006 15 2.75006H9Z" fill="#434343"/>
<path d="M7.33011 15.2401C7.17011 15.2401 7.01011 15.1901 6.87011 15.0801C6.54011 14.8301 6.48011 14.3601 6.73011 14.0301L9.11011 10.9401C9.40011 10.5701 9.81011 10.3301 10.2801 10.2701C10.7401 10.2101 11.2101 10.3401 11.5801 10.6301L13.4101 12.0701C13.4801 12.1301 13.5501 12.1301 13.6001 12.1201C13.6401 12.1201 13.7101 12.1001 13.7701 12.0201L16.0801 9.04007C16.3301 8.71007 16.8101 8.65007 17.1301 8.91007C17.4601 9.16007 17.5201 9.63007 17.2601 9.96007L14.9501 12.9401C14.6601 13.3101 14.2501 13.5501 13.7801 13.6001C13.3101 13.6601 12.8501 13.5301 12.4801 13.2401L10.6501 11.8001C10.5801 11.7401 10.5001 11.7401 10.4601 11.7501C10.4201 11.7501 10.3501 11.7701 10.2901 11.8501L7.91011 14.9401C7.78011 15.1401 7.56011 15.2401 7.33011 15.2401Z" fill="#434343"/>
</svg>
